<svg xmlns="http://www.w3.org/2000/svg" width="11" height="11" viewBox="0 0 11 11"><defs><linearGradient id="1ypoa" x1="4.21" x2="6.43" y1="7.56" y2="3.77" gradientUnits="userSpaceOnUse"><stop offset="0" stop-color="#6f9da7"/><stop offset=".99" stop-color="#cee2e4"/><stop offset="1" stop-color="#cee2e4"/></linearGradient><linearGradient id="1ypob" x1="3.21" x2="7.44" y1="10.58" y2=".76" gradientUnits="userSpaceOnUse"><stop offset="0" stop-color="#6f9da7"/><stop offset=".99" stop-color="#cee2e4"/><stop offset="1" stop-color="#cee2e4"/></linearGradient><clipPath id="1ypoc"><path fill="#fff" d="M5.322.755c2.697 0 4.883 2.2 4.883 4.91 0 2.712-2.186 4.91-4.883 4.91-2.696 0-4.882-2.198-4.882-4.91 0-2.71 2.186-4.91 4.882-4.91z"/></clipPath></defs><g><g><path fill="#709da7" d="M5.322 3.774A1.893 1.893 0 1 1 5.32 7.56a1.893 1.893 0 0 1 .002-3.787z"/><path fill="url(#1ypoa)" d="M5.322 3.774A1.893 1.893 0 1 1 5.32 7.56a1.893 1.893 0 0 1 .002-3.787z"/></g><g><path fill="url(#1ypob)" d="M5.322.755c2.697 0 4.883 2.2 4.883 4.91 0 2.712-2.186 4.91-4.883 4.91-2.696 0-4.882-2.198-4.882-4.91 0-2.71 2.186-4.91 4.882-4.91z"/><path fill="none" stroke="#6f9da7" stroke-miterlimit="20" stroke-width="2" d="M5.322.755c2.697 0 4.883 2.2 4.883 4.91 0 2.712-2.186 4.91-4.883 4.91-2.696 0-4.882-2.198-4.882-4.91 0-2.71 2.186-4.91 4.882-4.91z" clip-path="url(&quot;#1ypoc&quot;)"/></g></g></svg>