<svg width="627" height="167" xmlns="http://www.w3.org/2000/svg"><g fill="#7BA7AF" fill-rule="evenodd"><path d="M235.496 63a9.169 9.169 0 0 1-2.295-.297l-.071-.018a13.81 13.81 0 0 1-3.092-1.212c-3.127-1.659-6.234-4.608-8.578-8.45l-.477-.814c-2.073-3.684-3.065-7.488-2.978-10.712.089-3.34 1.328-6.086 3.706-7.509l.201-.114c2.551-1.41 5.824-1.058 9.05.655 3.127 1.657 6.234 4.607 8.578 8.449l.476.812c2.074 3.683 3.066 7.488 2.979 10.714-.089 3.34-1.329 6.086-3.707 7.51l-.011.004-.19.109c-1.086.6-2.303.88-3.591.873Zm-1.626-13.583c2.474-.52 4.974 1.812 5.589 5.21.476 2.64-.448 4.544-1.19 5.635.182-.09.364-.19.546-.298.2-.12.388-.26.56-.42 1.005-.933 1.385-2.395 1.465-3.714.101-1.684-.25-3.474-.852-5.045-.505-1.319-1.236-2.611-2.19-3.663a13.194 13.194 0 0 0-1.156-1.125c-2.3-1.978-5.974-3.645-8.895-1.978-1.215.693-1.912 2.023-2.253 3.326-.418 1.594-.377 3.377.012 4.973.272 1.116.729 2.209 1.39 3.155.875 1.252 1.956 2.432 3.16 3.38.765.6 1.57 1.1 2.401 1.462-.747-.822-1.649-2.1-1.955-3.802-.614-3.398.894-6.573 3.368-7.096Zm2.474-7.165c-1.727-2.32-3.932-4.426-6.444-5.758-2.015-1.068-4.74-1.858-6.87-.686l-.154.089c-1.935 1.158-2.566 3.558-2.621 5.658-.076 2.823.795 5.779 2.051 8.345-.022-.598 0-1.199.071-1.793.315-2.648 1.588-5.07 3.93-6.472l.232-.133c2.525-1.396 5.481-1.223 8.087-.129a13.02 13.02 0 0 1 1.718.88Z"/><path d="M263.25 71.165c.58 6.495.898 15.298-1.859 21.286-.851 1.849-2.013 3.5-3.596 4.779-2.83 2.285-6.406 2.893-9.937 2.75l-.606-.024-.347-.499c-1.642-2.358-3.441-4.65-5.256-6.874a170.182 170.182 0 0 0-7.128-8.196 123.919 123.919 0 0 0-5.533-5.619c-1.515-1.437-3.09-2.846-4.739-4.132-.79 1.446-1.977 2.472-3.462 3.255-.6.315-1.338.08-1.65-.527a1.245 1.245 0 0 1 .522-1.668c.92-.485 1.7-1.12 2.255-2.017.69-1.113.93-2.465 1.031-3.757.141-1.798.047-3.683-.015-5.486l-.013-.367a1.23 1.23 0 0 1 1.181-1.276 1.23 1.23 0 0 1 1.259 1.194l.011.367c.056 1.59.125 3.203.074 4.794 3.64 2.193 7.56 4.04 11.648 5.181 3.728 1.04 7.61 1.487 11.46 1 7.328-.926 13.101-5.05 17.572-10.822-1.089-1.3-2.406-2.283-3.788-3.258a1.245 1.245 0 0 1-.303-1.72 1.211 1.211 0 0 1 1.7-.307c1.75 1.235 3.34 2.457 4.655 4.188 1.794 2.358 2.592 5.05 2.614 8.016a1.228 1.228 0 0 1-1.209 1.245 1.227 1.227 0 0 1-1.23-1.225c-.013-1.673-.32-3.276-1.03-4.762a35.76 35.76 0 0 1-4.28 4.48Zm-3.68 16.976c-1.978-1.443-4.054-2.731-6.103-3.893-2.202-1.249-4.356-2.342-6.326-3.33-1.06-.51-1.933-.119-1.323 1.17.185.392.39.616.722 1.104-1.32-.516-6.14-2.164-7.215-.88-.393.471-.493 1.254-.126 2.54 2.864 3.643 4.625 5.414 7.298 9.222 4.475.987 10.293 1.254 13.073-5.933Zm54.5 28.847a4.63 4.63 0 0 0 1.129-.226l.034-.01a6.98 6.98 0 0 0 1.49-.701c1.49-.919 2.924-2.466 3.947-4.422l.207-.414c.894-1.868 1.247-3.758 1.085-5.326-.166-1.625-.882-2.919-2.114-3.529l-.105-.049c-1.316-.597-2.927-.309-4.466.64-1.49.918-2.925 2.465-3.948 4.42l-.205.413c-.894 1.869-1.247 3.758-1.086 5.327.167 1.625.882 2.92 2.115 3.53l.005.002.098.046a3.681 3.681 0 0 0 1.815.299Zm.623-6.562c-.864-.171-1.72.718-1.916 1.985-.144.939.117 1.822.614 2.285.236.223.643.441-.076.107a1.782 1.782 0 0 1-.114-.058l-.061-.036c-.577-.35-.925-.995-1.023-1.765-.102-.796.062-1.725.511-2.612l.084-.16c.507-.923 1.23-1.611 1.988-1.972.737-.351 1.504-.396 2.127-.049l.062.035c.577.35.925.995 1.022 1.766.101.795-.062 1.723-.51 2.61l-.085.161c-.507.923-1.23 1.61-1.99 1.972a3.18 3.18 0 0 1-.409.162l-.036.012h-.005l-.004.003c-.215.055-.105.026.018-.053.495-.322.893-.979 1.017-1.79.194-1.266-.349-2.431-1.214-2.603Z"/><path d="M319.83 108c.15-.677.212-1.366.14-2.02-.067-.624-.304-1.523-.971-1.844l-.065-.029c-.773-.32-1.866.144-2.512.519a7.851 7.851 0 0 0-1.422 1.073c1.016-.156 2.06-.025 2.995.465l.121.066.024.013a4.316 4.316 0 0 1 1.69 1.757M9.128 50.238c8.09-3.787 15.542-4.383 24.942-5.051 20.814-1.478 40.428 5.85 47.806 20.44 8.878 17.556.808 36.514-21.391 45.342 6.697 8.99 16.594 16.083 30.483 20.808.446 8.506-3.807 19.998-10.237 22.086-21.419 6.953-35.152-19.355-43.571-41.516-.728-1.916-1.112-3.254 1.081-4.12 15.827-6.256 18.837-16.653 19.66-27.054.85-10.706-2.93-20.68-15.372-23.047-4.907 29.626-9.067 59.22-15.964 81.508-3.7 8.447-9.573 11.47-16.314 13.38-4.837 1.37-10.814-.852-10.208-7.19 2.857-29.92 10.65-56.847 17.384-83.944-3.098.739-5.556 1.656-8.709 2.124-6.89 1.026-5.508-10.996.41-13.766m99.239 52.387c3.451-4.991 12.671-2.529 13.234 4.55 1.293 16.2-.518 30.906-6.005 46.271-2.192 6.139-9.966 6.18-13.962-.538-5.027-8.45-2.899-36.351 6.733-50.283m2.606-26.941c3.61-4.165 10.131-3.339 11.302 1.48 1.608 6.612.583 12.142-3.503 16.955-3.487 4.11-10.033 3.987-11.204-1.432-1.716-7.953.757-13.948 3.405-17.003m60.223 19.41c-17.281-1.006-27.695 6.175-34.703 15.283-16.577 21.548-7.221 43.503 13.698 45.442 13.968 1.294 26.817-4.277 34.333-19.011 5.232-10.256 2.26-32.785-9.758-33.152-5.157-.159-10.273 1.802-14.496 5.44-.542.465-.597 1.787.018 2.147 5.412 3.167 14.911 15.932 7.475 29.922-2.954 5.56-9.752 6.63-13.835 3.485-9.271-7.146-7.575-24.208-2.43-32.99 3.939-6.722 9.968-11.24 19.673-13.06 1.117-.21 1.974-3.392.025-3.506"/><path d="M240.635 6.619a10.568 10.568 0 0 0-2.903-1.707c-1.327-.51-2.727-.733-4.22-.812-6.997-.37-16.828 6.434-25.635 12.528-1.565 1.082-3.114 2.154-4.143 2.85l-.544.368-.658-.022c-8.084-.268-14.047.604-18.729 2.398-4.592 1.759-8 4.437-11.025 7.81-1.662 1.854-2.492 4.327-2.664 6.957-.2 3.07.49 6.325 1.805 9.105 2.707 5.726 5.887 11.143 9.204 16.795 4.609 7.853 9.48 16.154 13.727 26.26 2.84 6.757 4.768 15.54 4.988 24.233.194 7.65-.933 15.272-3.913 21.461-1.246 2.589-1.691 5.408-1.553 8.257.16 3.334 1.12 6.728 2.539 9.875l.147.294a3.1 3.1 0 0 0 1.941 1.516c.93.245 2.066.127 3.287-.426.211-.095.422-.202.626-.317 3.366-1.89 6.41-4.598 9.196-7.655 2.86-3.139 5.445-6.634 7.83-10.01 3.203-4.533 7.568-9.524 11.895-13.912 4.784-4.852 9.581-9.017 12.762-11.054l1.185-.76 1.122.835c3.668 2.728 7.271 5.944 10.944 9.587 3.627 3.6 7.325 7.624 11.227 12.012.685.77 1.331 1.341 1.936 1.723.615.39 1.149.556 1.6.522.43-.032.87-.257 1.31-.651.413-.369.823-.88 1.226-1.52 1.96-3.106 3.241-8.208 3.985-14.604.86-7.415.977-16.434.568-26.07a336.941 336.941 0 0 0-1.518-20.47 324.08 324.08 0 0 0-2.717-20.065c-.965-5.716-2.4-13.444-4.61-21.077-2.17-7.497-5.085-14.87-9.018-20.002-2.043-2.667-4.86-4.413-8.02-4.976-5.166-.92-7.963.946-11.875 3.113-5.378 2.961-9.623 5.3-11.565 8.538l-.396.66-.758.005c-.972.01-2.224-.025-3.543-.061-6.16-.168-13.942-.382-17.444 4.445-1.62 2.23-3.647 4.075-6.4 5.597-2.676 1.48-4.5 2.304-8.864 3.223l-2.1-2.317c4.08-.858 7.204-1.937 9.657-3.294 2.377-1.315 4.124-2.9 5.51-4.811 4.341-5.983 12.92-5.748 19.713-5.564.922.025 1.809.05 2.723.054 2.427-3.504 6.757-5.888 12.16-8.863l.002-.001Zm-1.451-5.528a14.738 14.738 0 0 1 4.12 2.426c3.827-1.795 7.686-2.273 11.226-1.643 4.174.744 7.875 3.025 10.54 6.505 4.287 5.593 7.406 13.434 9.7 21.354 2.255 7.787 3.722 15.692 4.71 21.542a327.144 327.144 0 0 1 2.751 20.321c.729 6.987 1.25 14 1.535 20.724.42 9.884.302 19.12-.577 26.695-.811 6.98-2.285 12.66-4.592 16.321-.6.953-1.258 1.756-1.97 2.391-1.117 1-2.355 1.577-3.71 1.68-1.331.1-2.696-.262-4.082-1.139-.913-.578-1.85-1.397-2.803-2.469-3.84-4.32-7.48-8.28-11.05-11.822-3.142-3.116-6.233-5.91-9.366-8.337-2.883 2.072-6.857 5.61-10.886 9.696-4.194 4.253-8.408 9.065-11.466 13.395-2.48 3.51-5.168 7.143-8.147 10.412-3.053 3.352-6.424 6.338-10.21 8.465-.321.18-.637.341-.944.48-2.12.957-4.198 1.133-5.998.659-1.905-.501-3.476-1.71-4.465-3.48a7.789 7.789 0 0 1-.307-.614c-1.61-3.567-2.702-7.464-2.89-11.358-.168-3.498.391-6.986 1.951-10.227 2.682-5.572 3.693-12.538 3.515-19.587-.207-8.176-2.012-16.42-4.673-22.747-4.156-9.89-8.948-18.056-13.483-25.783-3.391-5.778-6.642-11.316-9.382-17.113-1.596-3.375-2.433-7.343-2.19-11.101.228-3.491 1.383-6.833 3.713-9.43 3.433-3.83 7.322-6.876 12.595-8.897 5.048-1.934 11.326-2.903 19.647-2.685a503.057 503.057 0 0 0 3.569-2.453C214.916 6.801 225.355-.422 233.716.02c1.897.1 3.701.393 5.468 1.072Zm69.345 83.88a8.1 8.1 0 0 1 2.028-1.233c.978-.412 1.962-.608 2.978-.698 4.883-.431 9.325 2.683 14.323 6.187l.332.231c4.815-.194 8.558.621 11.515 1.954 3.115 1.405 5.345 3.378 7.043 5.355 1.283 1.495 2.025 3.971 2.207 6.577.18 2.571-.173 5.36-1.077 7.477-1.31 3.07-2.565 5.434-3.842 7.84-1.697 3.198-3.44 6.481-5.348 11.503-1.129 2.971-1.628 6.428-1.478 9.965.146 3.48.926 7.03 2.354 10.27.8 1.81 1.055 3.95.88 6.116a18.4 18.4 0 0 1-1.82 6.559l-.031.057c-.532 1.033-1.736 2.239-3.1 3-1.519.847-3.316 1.22-4.882.448l-.052-.03c-1.957-1-3.943-2.37-5.78-3.932-1.87-1.588-3.601-3.39-4.995-5.214a106.293 106.293 0 0 0-5.22-6.278 91.408 91.408 0 0 0-4.02-4.226 82.422 82.422 0 0 0-2.577 2.867c-1.182 1.358-2.453 2.82-4.539 4.956-.156.16-.32.305-.487.437-1.397 1.097-3.221 1.346-4.94 1.054-1.617-.276-3.197-1.053-4.21-2.039a5.35 5.35 0 0 1-.467-.517c-1.5-1.901-2.6-4.841-3.309-8.51-.708-3.667-1.044-8.126-1.013-13.037v-.056c.043-6.78.09-13.944.986-20.717l.205-1.588c.809-6.37 2.105-16.576 6.578-21.633a10.69 10.69 0 0 1 5.81-3.409c1.846-.397 3.863-.332 5.948.264Zm23.347 15.93c-2.23-.057-4.024-.86-5.477-1.925-1.41-1.032-2.489-2.306-3.338-3.368-1.339-1.674-4.319-1.626-6.862-1.584a41.43 41.43 0 0 1-1.895.003l-.456-.015-.242-.385c-.529-.846-1.366-1.943-2.249-2.732-.84-.75-2.005-1.63-3.277-2.178-1.688-.616-3.013-1.071-4.79-.689a7.316 7.316 0 0 0-3.966 2.343c-3.781 4.275-4.996 13.835-5.753 19.8l-.205 1.602c-.876 6.619-.921 13.643-.963 20.291l-.001.056c-.03 4.692.286 8.93.955 12.386.607 3.146 1.49 5.589 2.643 7.052l.17.185c.54.525 1.439.95 2.396 1.11.866.145 1.719.068 2.271-.366l.156-.14c2.067-2.118 3.279-3.512 4.408-4.808 1.15-1.324 2.22-2.555 3.885-4.228l1.161-1.167 1.206 1.114c1.617 1.493 3.514 3.433 5.453 5.596 1.775 1.98 3.629 4.2 5.38 6.489 1.243 1.624 2.8 3.243 4.497 4.686 1.643 1.396 3.408 2.614 5.13 3.498.413.204 1.081-.003 1.727-.364.797-.445 1.462-1.072 1.722-1.57l.016-.037a14.93 14.93 0 0 0 1.477-5.306c.13-1.623-.046-3.195-.612-4.48-1.597-3.619-2.469-7.598-2.633-11.504-.168-3.984.404-7.903 1.694-11.298 1.998-5.262 3.782-8.62 5.517-11.893 1.255-2.361 2.486-4.68 3.726-7.585.69-1.62.955-3.83.81-5.918-.135-1.938-.606-3.685-1.39-4.599-1.415-1.647-3.273-3.291-5.862-4.459-2.628-1.185-6.03-1.888-10.52-1.634l-.588.033-1.287-.9c-4.46-3.125-8.423-5.904-12.079-5.58-.706.061-1.36.186-1.952.435-.44.186-.87.45-1.296.82a12.776 12.776 0 0 1 4.316 4.038c.437.004.899-.003 1.373-.01 2.926-.049 6.36-.104 8.22 2.224.775.97 1.758 2.131 3.014 3.05 1.21.887 2.011 1.315 3.86 1.558l.51 2.352Z"/><path d="M257.327 57.357a7.5 7.5 0 0 1-3.495.628l-.02-.001a7.483 7.483 0 0 1-3.372-1.073l-.066-.039-.058-.037-.043-.026c-1.548-.97-2.883-2.493-3.917-4.412-1.703-3.158-2.602-7.414-2.297-12.021l.005-.083c.32-4.628 1.8-8.756 3.927-11.685 2.197-3.022 5.099-4.79 8.18-4.593l.019.001c3.075.206 5.697 2.324 7.455 5.585 1.702 3.158 2.602 7.413 2.296 12.02l-.005.081c-.319 4.63-1.797 8.758-3.927 11.687-1.317 1.812-2.888 3.173-4.6 3.932l-.01.005-.072.03Zm-.528-2.113c.987-.436 1.85-1.11 2.56-1.887 1.738-1.902 2.646-4.47 2.829-6.958l.002-.036c.182-2.48-.369-5.117-1.818-7.213-1.111-1.606-2.786-2.877-4.85-3.01l-.024-.002c-2.078-.11-3.95.932-5.28 2.39-1.738 1.903-2.644 4.474-2.829 6.961l-.003.045c-.185 2.478.369 5.11 1.817 7.204.608.879 1.39 1.678 2.341 2.226l.032.018a5.791 5.791 0 0 0 2.496.766h.005c.936.058 1.846-.129 2.698-.493l.024-.011ZM246.45 39.24c.436-.77.946-1.499 1.533-2.164 1.901-2.154 4.57-3.567 7.5-3.378l.046.002c2.946.2 5.373 1.925 6.967 4.31.492.737.9 1.526 1.225 2.348.073-3.298-.527-6.818-2.086-9.712-1.136-2.105-3.024-4.209-5.597-4.395l-.017-.002c-2.585-.188-4.774 1.726-6.18 3.66-1.93 2.655-3.001 6.06-3.391 9.33Zm-11.31 14.77c.841-.123 1.736.847 1.847 2.16.111 1.312-.488 2.685-1.2 2.818s-1.598-.858-1.754-2.147c-.158-1.289.265-2.706 1.107-2.83"/><path d="M254.845 44.01c2.476.175 4.331 2.778 4.142 5.81-.19 3.032-2.353 5.347-4.83 5.17-2.475-.176-4.332-2.778-4.144-5.808.192-3.032 2.354-5.348 4.832-5.173Zm-.15 4.446c.879.061 1.534 1.033 1.462 2.167-.07 1.135-.841 2.005-1.72 1.942-.879-.062-1.535-1.033-1.464-2.169.072-1.134.84-2.003 1.722-1.94Zm48.789 66.247c.552.23 1.143.334 1.749.285h.01a3.717 3.717 0 0 0 1.673-.566l.033-.02.029-.02.02-.013c.764-.5 1.416-1.273 1.915-2.241.821-1.595 1.233-3.732 1.04-6.035l-.003-.041c-.201-2.313-.976-4.365-2.063-5.812-1.123-1.493-2.586-2.353-4.122-2.228h-.009c-1.532.13-2.822 1.212-3.67 2.86-.821 1.594-1.232 3.73-1.039 6.032l.003.041c.2 2.313.975 4.367 2.063 5.813.673.896 1.468 1.563 2.33 1.928l.005.002.036.015Zm2.946-12.614a6.238 6.238 0 0 0-.354-.524c-.465-.618-1.27-1.404-2.108-1.336l-.023.002c-.846.071-1.498.968-1.846 1.646-.1.193-.19.391-.269.595a5.277 5.277 0 0 1 2.245-.722l.019-.001a5.284 5.284 0 0 1 2.336.34Zm-1.66 6.147c-.952.17-1.556 1.338-1.352 2.61.161.996.773 1.76 1.489 1.96-1.404.034-2.698-1.649-2.962-3.934-.278-2.43.715-4.622 2.22-4.894 1.505-.272 2.95 1.478 3.231 3.908.154 1.343-.081 2.614-.577 3.528.09-.363.11-.77.044-1.185-.206-1.27-1.143-2.163-2.094-1.993Zm-4.434 11.947c-.051.29-.074.588-.07.891a1.14 1.14 0 0 1-1.123 1.156 1.138 1.138 0 0 1-1.143-1.133c-.014-1.427.356-2.737 1.202-3.886.603-.82 1.326-1.403 2.137-1.994a1.126 1.126 0 0 1 1.58.256 1.152 1.152 0 0 1-.253 1.598c-.418.305-.827.614-1.19.977 1.848 2.15 4.163 3.661 7.044 3.973 3.29.355 6.601-.917 9.393-2.608-.017-.59-.002-1.184.008-1.772l.003-.161a1.14 1.14 0 0 1 1.148-1.124 1.14 1.14 0 0 1 1.118 1.162l-.003.16c-.017.977-.128 2.843.418 3.688.19.295.457.496.766.652.56.281.789.97.51 1.535-.278.565-.96.796-1.52.514-.546-.275-1.014-.619-1.388-1.058-1.374 1.17-2.68 2.547-3.865 3.865a75.237 75.237 0 0 0-3.033 3.603 49.202 49.202 0 0 0-2.222 3.005l-.315.468-.56.032c-2.902.168-5.247-.817-6.552-3.522-1.264-2.617-1.25-6.356-1.055-9.281a15.39 15.39 0 0 1-1.035-.996Zm3.934 7.71a23.49 23.49 0 0 1 2.281-1.578 49.67 49.67 0 0 1 2.365-1.351c.396-.207.722-.048.494.474-.07.16-.146.25-.27.448.494-.21 2.295-.877 2.697-.357.147.192.183.51.046 1.03-1.07 1.478-1.728 2.196-2.727 3.74-1.672.402-3.846.51-4.886-2.405Zm103.835-42.601c27.713-16.137 21.914-46.02-8.272-44.214-18.69 1.12-35.704 11.52-40.808 27.604-4.686 14.766 2.06 24.479 10.12 32.165 7.997 7.626 24.332 18.776 23.504 31.77-.737 11.575-9.393 11.32-12.755 8.58-5.582-4.55-6.88-13.001-8.716-19.667-.999-3.624-6.173-5.956-10.358-3.86-4.608 2.308-9.39 5.03-12.698 8.94-2.36 2.79-.608 8.346 1.674 11.202 15.115 18.922 38.073 23.306 52.285 12.089 17.104-13.499 21.158-29.95 14.133-44.137-2.814-5.681-7.62-10.874-13.75-15.565-13.907-10.64-17.4-23.753-7.652-35.804 1.023-1.267 2.936-1.803 4.077-.637 7.593 7.757 8.407 16.944 6.413 30.028-.203 1.336 1.634 2.187 2.803 1.506m32.315 13.91c1.79-4.78 3.86-10.351 6.062-14.087 3.063-5.2 6.253-10.016 15.65-10.115 4.323-.045 3.94 3.647 3.075 5.558-2.336 5.144-6.034 11.162-7.82 18.724 8.254-.345 10.53.417 7.024 8.086-2.498 5.465-7.889 5.52-11.98 6.133-2.014 7.38-3.38 14.311-4.087 22.133-.648 7.17 4.251 9.364 11.585 9.034-3.351 4.088-7.526 7.11-12.227 9.45-8.638 2.92-16.116-1.89-18.851-7.346-2.891-5.77 2.213-20.63 5.945-33.025-5.089-.125-6.198-3.676-3.456-8.53 1.466-2.596 3.94-4.375 9.08-6.015m74.365-4.124c-14.524-.919-27.782 6.382-37.609 17.81-8.394 9.763-15.407 30.041-.346 38.267 10.168 5.554 24.056 4.665 34.69.05 17.2-7.462 25.254-28.542 17.551-41.481-4.85-8.148-13.066-9.438-23.857-.974-.96.753-2.351 1.441 1.21 3.81 7.931 5.272 9.078 14.345 8.221 19.864-1.135 7.318-6.864 15.328-16.43 13.467-8.034-1.563-11.889-12.775-8.461-23.667 2.225-7.073 8.197-21.64 25.959-23.798 4.896-.595 3.502-3.069-.928-3.348m38.544 5.458c4.423-4.925 13.562-3.232 13.48 1.53-.126 7.33-4.486 14.647-6.184 21.362-.376 1.485.825 2.348 2.297.74 8.473-9.254 14.879-19.946 25.24-26.982 4.573-3.104 13.643-.278 11.1 10.398-1.863 7.818-3.752 10.502-6.036 16.038-.513 1.243.76 2.31 1.748 1.43 4.994-4.442 12.658-12.369 18.49-18.78 3.616-3.974 15.247-4.032 13.323 6.53-3.167 17.367-6.284 27.074-3.659 42.642.556 3.3-.592 5.234-2.812 6.621-8.064 5.04-14.53-.75-17.322-6.15-3.116-6.029.047-14.041-.023-25.962-7.587 7.474-15.346 14.547-22.762 22.42-4.648 4.933-13.95 1.043-13.653-4.57.332-6.28 3.177-13.364 4.938-19.4-7.825 6.34-14.484 16.274-22.171 23.434-7.446 6.934-16.496 1.379-13.854-9.165 3.208-12.803 10.435-33.869 17.86-42.136"/></g></svg>