<?xml version="1.0" encoding="UTF-8"?>
<svg width="627px" height="167px" viewBox="0 0 627 167" version="1.1" xmlns="http://www.w3.org/2000/svg" xmlns:xlink="http://www.w3.org/1999/xlink">
    <!-- Generator: Sketch 57.1 (83088) - https://sketch.com -->
    <title>Group</title>
    <desc>Created with Sketch.</desc>
    <g id="Page-1" stroke="none" stroke-width="1" fill="none" fill-rule="evenodd">
        <g id="Rio-Stom" transform="translate(-174.000000, -154.000000)" fill="#7BA7AF">
            <g id="Group" transform="translate(174.000000, 154.000000)">
                <path d="M235.495764,63 C234.740947,63.0018264 233.971054,62.9002786 233.20116,62.7031562 L233.129799,62.685236 C232.110645,62.4293752 231.072395,62.0211926 230.038164,61.4726351 C226.911352,59.8140199 223.803635,56.8651496 221.459782,53.0222598 L220.983373,52.2088813 C218.909887,48.5252823 217.91787,44.7212197 218.005312,41.4965772 C218.09376,38.1564489 219.333027,35.4106743 221.711053,33.9880086 L221.912069,33.8735184 C224.46297,32.4637951 227.73552,32.8162259 230.961836,34.5286017 C234.088648,36.1862212 237.196365,39.1360871 239.540218,42.9779813 L240.015622,43.7903642 C242.090113,47.4729677 243.08213,51.2780259 242.994688,54.503664 C242.90624,57.8437923 241.665968,60.5895669 239.287942,62.0132281 L239.276886,62.0182059 L239.087931,62.1267228 C238.001436,62.7270499 236.784281,63.0077998 235.495764,63 Z M233.86954,49.4173106 C236.344054,48.8976245 238.843695,51.2292431 239.458806,54.6261187 C239.935215,57.2673588 239.010539,59.1708835 238.268788,60.2620252 C238.450708,60.1724242 238.632628,60.0728674 238.814548,59.9643506 C239.015565,59.843887 239.20251,59.703512 239.374379,59.5442212 C240.380467,58.6113746 240.760389,57.1488863 240.83979,55.8297596 C240.941303,54.1462553 240.590529,52.3562253 239.988485,50.7852201 C239.482928,49.4660934 238.752233,48.1738471 237.797404,47.1215324 C237.435574,46.7233055 237.048617,46.3469811 236.641559,45.9965414 C234.341929,44.0193447 230.668351,42.3517695 227.746576,44.0193447 C226.532435,44.7122596 225.834908,46.0423375 225.494185,47.3445395 C225.07607,48.9394383 225.117279,50.7215038 225.506246,52.3183937 C225.777618,53.4344247 226.234931,54.526562 226.896275,55.4733465 C227.770698,56.7247746 228.852167,57.9045219 230.056256,58.8523019 C230.821124,59.4536246 231.626195,59.9533994 232.457399,60.3147903 C231.709617,59.4934473 230.808058,58.2151389 230.501508,56.5127188 C229.888407,53.1148476 231.396031,49.9399835 233.86954,49.4173106 Z M236.344054,42.2522128 C234.617322,39.932541 232.41217,37.8259205 229.900468,36.4938515 C227.885277,35.4256078 225.160497,34.6361229 223.030727,35.8079056 L222.875944,35.8965111 C220.941159,37.0553515 220.309967,39.4546687 220.254688,41.5553157 C220.179307,44.377749 221.049708,47.3335883 222.306062,49.9001608 C222.28395,49.3018248 222.306062,48.7014977 222.377423,48.1071441 C222.692014,45.458935 223.965454,43.0367198 226.306292,41.634961 L226.539471,41.501555 C229.064239,40.1057697 232.020188,40.2789984 234.626368,41.3731268 C235.219367,41.6220187 235.793269,41.9177022 236.344054,42.2522128 L236.344054,42.2522128 Z" id="Fill-2"></path>
                <path d="M263.250806,71.1647427 C263.83033,77.6599675 264.147877,86.4625742 261.39117,92.4505166 C260.539746,94.2998375 259.377722,95.951268 257.794947,97.2300216 C254.9658,99.5153041 251.389424,100.123039 247.857703,99.9803968 L247.252378,99.9562883 L246.905061,99.457042 C245.262746,97.0994341 243.463642,94.80712 241.648661,92.5831132 C239.360337,89.778494 236.981709,87.0381641 234.520718,84.3872364 C232.73253,82.461572 230.894725,80.5750839 228.988449,78.7679528 C227.473153,77.3314895 225.897325,75.9221483 224.249056,74.636363 C223.459158,76.0818669 222.272325,77.1084861 220.786799,77.891007 C220.187429,78.2064263 219.449131,77.9703641 219.137538,77.3636342 C218.826937,76.7579087 219.060136,76.010546 219.658514,75.6961313 C220.579401,75.2109483 221.358384,74.5760918 221.914092,73.6790557 C222.603765,72.5660477 222.844902,71.2139641 222.945128,69.9221517 C223.08604,68.1240613 222.991768,66.2385777 222.930243,64.4364693 L222.917343,64.068815 C222.893527,63.3877506 223.425418,62.8141698 224.098221,62.7930749 C224.770032,62.7729845 225.332686,63.307389 225.356502,63.9874489 L225.36841,64.3540986 C225.423981,65.9432489 225.493445,67.5565077 225.441843,69.147667 C229.082721,71.3405336 233.001453,73.18885 237.089874,74.3289799 C240.818077,75.3696624 244.6991,75.8156692 248.54936,75.3294816 C255.877756,74.4033144 261.651162,70.2787562 266.121632,64.5067856 C265.03304,63.2069371 263.716211,62.2235122 262.333888,61.249128 C261.780165,60.8593744 261.645208,60.0879032 262.031226,59.5283857 C262.416252,58.9688682 263.177373,58.8322535 263.730104,59.2220071 C265.480583,60.4565619 267.070304,61.6790625 268.386141,63.4098501 C270.180283,65.7684625 270.97812,68.4605755 271,71.4259178 C271.005905,72.1069822 270.46409,72.6644907 269.791287,72.6705178 C269.117492,72.6765449 268.565753,72.1280771 268.560792,71.4460082 C268.547891,69.7734828 268.240267,68.1702692 267.530748,66.68358 C266.230789,68.2948297 264.806788,69.8046229 263.250806,71.1647427 Z M259.570235,88.1411268 C257.591518,86.6976319 255.515553,85.4098375 253.467373,84.2476081 C251.265382,82.9989901 249.111022,81.9060726 247.141237,80.9176251 C246.08043,80.4083336 245.208168,80.7990918 245.818454,82.0878906 C246.003028,82.4796533 246.207449,82.7036613 246.539882,83.1918579 C245.219083,82.6755347 240.400304,81.0281223 239.324612,82.3129031 C238.931648,82.7830183 238.832414,83.5655392 239.198586,84.8513245 C242.063458,88.4947177 243.82386,90.2656861 246.497211,94.0738205 C250.97165,95.0612635 256.789712,95.3284657 259.570235,88.1411268 L259.570235,88.1411268 Z" id="Fill-3"></path>
                <path d="M314.070543,116.987554 C314.445663,116.962182 314.823791,116.885088 315.19891,116.762129 L315.233012,116.751394 C315.729494,116.5894 316.229987,116.354215 316.722456,116.05072 C318.213907,115.132428 319.647183,113.584699 320.670236,111.629058 L320.876852,111.21529 C321.770519,109.346501 322.123572,107.457219 321.962091,105.888998 C321.795594,104.264176 321.08046,102.970174 319.847782,102.360256 L319.743471,102.311462 C318.426541,101.71423 316.815735,102.002112 315.277144,102.950656 C313.786697,103.868949 312.352417,105.415701 311.329364,107.371342 L311.123751,107.784135 C310.230084,109.652924 309.877031,111.542206 310.03751,113.111403 C310.205009,114.736225 310.920143,116.031203 312.152821,116.640145 L312.157836,116.643073 L312.25613,116.688938 C312.817806,116.942664 313.431637,117.036348 314.070543,116.987554 Z M314.693402,110.425812 C313.828822,110.255035 312.972266,111.144051 312.776683,112.410729 C312.633255,113.349515 312.894033,114.232676 313.390514,114.696214 C313.627221,114.918712 314.034436,115.137307 313.31529,114.802584 C313.277176,114.785018 313.238059,114.765501 313.200949,114.745008 L313.139766,114.7089 C312.563045,114.358564 312.215007,113.71449 312.116714,112.943554 C312.015411,112.148221 312.178899,111.219193 312.62824,110.332129 L312.712491,110.172086 C313.219003,109.248914 313.94216,108.560927 314.700423,108.199855 C315.43662,107.848542 316.203909,107.803652 316.826768,108.151062 L316.888953,108.186193 C317.465674,108.53653 317.813712,109.180603 317.911003,109.95154 C318.012305,110.746873 317.848817,111.674924 317.400479,112.561989 L317.316228,112.723007 C316.808714,113.646179 316.085556,114.332215 315.32629,114.695238 C315.190886,114.759646 315.053476,114.814294 314.917069,114.857233 C314.905033,114.861136 314.892998,114.866015 314.880962,114.868943 L314.875947,114.869919 L314.871935,114.871871 C314.657294,114.927495 314.76662,114.898219 314.889989,114.819174 C315.385467,114.497137 315.782652,113.840377 315.907023,113.02943 C316.100601,111.762752 315.557982,110.597565 314.693402,110.425812 L314.693402,110.425812 Z" id="Fill-4"></path>
                <path d="M319.830391,108 C319.980162,107.322537 320.041579,106.634194 319.970465,105.979478 C319.902583,105.356409 319.665535,104.457411 318.998568,104.135986 L318.933919,104.107305 C318.161358,103.78687 317.067705,104.25071 316.422288,104.62554 C315.913712,104.92125 315.437461,105.28718 315,105.698603 C316.016074,105.54333 317.060162,105.673878 317.995424,106.16442 L318.116103,106.229694 L318.139808,106.242551 C318.897284,106.676721 319.458657,107.290889 319.830391,108" id="Fill-5"></path>
                <path d="M9.12763586,50.2379912 C17.2186348,46.4506859 24.6701629,45.8547953 34.0699852,45.1869178 C54.883664,43.7091889 74.4980861,51.0368447 81.8759057,65.6261684 C90.7537923,83.1829477 82.6837107,102.14147 60.4845118,110.968851 C67.1820222,119.959201 77.0788786,127.0519 90.9679453,131.777034 C91.4141804,140.283473 87.1610024,151.775365 80.7314323,153.862982 C59.3121487,160.815707 45.5794635,134.507533 37.1597646,112.346598 C36.4316445,110.430949 36.0481612,109.093195 38.2414863,108.226354 C54.0678905,101.970501 57.0779851,91.5744084 57.9017271,81.1733164 C58.7503706,70.4672803 54.9703213,60.49311 42.5285304,58.1255443 C37.6219367,87.7521095 33.4623883,117.346681 26.5646698,139.633592 C22.8643053,148.081043 16.991533,151.103488 10.251192,153.014138 C5.41432256,154.383886 -0.563036098,152.162294 0.042568646,145.824457 C2.90026603,115.903945 10.6924468,88.9768849 17.4268114,61.8798556 C14.3290634,62.6187201 11.8707863,63.5355519 8.71825502,64.0044658 C1.82750894,65.0302777 3.21004083,53.008483 9.12763586,50.2379912" id="Fill-6"></path>
                <path d="M108.367443,102.624847 C111.818068,97.6336151 121.038107,100.096368 121.601475,107.174914 C122.893546,123.374509 121.083013,138.081314 115.596304,153.446381 C113.40407,159.58484 105.630212,159.62567 101.633569,152.907623 C96.6071474,144.458778 98.7350842,116.556876 108.367443,102.624847" id="Fill-7"></path>
                <path d="M110.972898,75.6841823 C114.582191,71.5191019 121.104298,72.3454181 122.27542,77.1642425 C123.883213,83.7757873 122.857982,89.3062181 118.772048,94.1189517 C115.284664,98.2281999 108.738574,98.1063842 107.568452,92.6866026 C105.85174,84.7340705 108.324885,78.7387099 110.972898,75.6841823" id="Fill-8"></path>
                <path d="M171.196126,95.0943113 C153.914777,94.0877519 143.500734,101.269147 136.493321,110.377356 C119.915516,131.924552 129.271743,153.880192 150.190901,155.819048 C164.15869,157.112623 177.007614,151.541923 184.52442,136.80782 C189.756462,126.551552 186.783165,104.022885 174.765883,103.655586 C169.6089,103.497025 164.492948,105.45796 160.269686,109.095824 C159.728268,109.561471 159.673225,110.883144 160.2877,111.243418 C165.69988,114.409615 175.199218,127.174755 167.763474,141.165229 C164.809192,146.724889 158.010941,147.795676 153.927787,144.64955 C144.656626,137.504283 146.352937,120.441947 151.498911,111.659891 C155.436953,104.938121 161.46561,100.420145 171.171106,98.5997073 C172.287969,98.3899656 173.144631,95.2077124 171.196126,95.0943113" id="Fill-9"></path>
                <path d="M240.63464,6.61859349 C239.671887,5.83500665 238.710134,5.28789869 237.732385,4.91213774 C236.404725,4.40210487 235.005084,4.17865235 233.512467,4.10049407 C226.515261,3.73074529 216.683782,10.5335216 207.877041,16.6278633 C206.312442,17.7100549 204.762839,18.7822261 203.734103,19.4786364 L203.190243,19.8463812 L202.532411,19.8243365 C194.448484,19.5557927 188.485014,20.4275581 183.803214,22.2221924 C179.211392,23.9807537 175.802266,26.6591778 172.778041,30.0320081 C171.116468,31.8857622 170.285681,34.3587703 170.113725,36.989097 C169.914776,40.0593145 170.604599,43.3139054 171.919262,46.0935344 C174.625568,51.8201314 177.805752,57.2371013 181.122902,62.8885461 C185.73172,70.7424511 190.60347,79.0432611 194.850381,89.1487257 C197.690653,95.9064108 199.618159,104.689197 199.838102,113.3818 C200.032052,121.032293 198.905341,128.653728 195.925106,134.843262 C194.679425,137.431503 194.233539,140.251214 194.371504,143.099983 C194.532463,146.433734 195.492217,149.827607 196.910853,152.974981 L197.057815,153.268575 C197.489704,154.040138 198.172529,154.568207 198.999317,154.784645 C199.929079,155.030143 201.064788,154.911903 202.286474,154.358783 C202.49742,154.26359 202.708366,154.157375 202.912314,154.042142 C206.278451,152.151313 209.32267,149.44383 212.107956,146.386639 C214.967223,143.248283 217.55256,139.753205 219.938948,136.376367 C223.141126,131.844189 227.506007,126.853081 231.832898,122.465195 C236.616671,117.61337 241.41444,113.447934 244.594625,111.410809 L245.780321,110.651271 L246.902033,111.485961 C250.570093,114.214487 254.173169,117.429998 257.846227,121.073377 C261.473297,124.673667 265.171348,128.696815 269.073348,133.084701 C269.758172,133.855261 270.404006,134.426418 271.008851,134.808191 C271.623694,135.19798 272.157557,135.364317 272.609441,135.330248 C273.038331,135.298183 273.478218,135.072727 273.919105,134.678929 C274.331999,134.310182 274.741894,133.799148 275.144791,133.159853 C277.104288,130.05256 278.38596,124.95123 279.129769,118.555277 C279.990548,111.140261 280.106518,102.120996 279.697623,92.484481 C279.415695,85.8610679 278.901827,78.9340399 278.180012,72.0150282 C277.470194,65.2152579 276.555429,58.427512 275.462709,51.9503952 C274.497957,46.2338185 273.063324,38.5061692 270.852891,30.8727106 C268.682448,23.3755281 265.768195,16.0035991 261.835204,10.8712055 C259.791728,8.20380371 256.97545,6.45826882 253.81526,5.8951284 C248.648585,4.97526558 245.852302,6.84104398 241.940306,9.00843317 C236.561685,11.9694295 232.316773,14.3071637 230.375271,17.5457221 L229.979373,18.2050573 L229.220567,18.2110695 C228.248817,18.2200877 226.997138,18.1860188 225.678476,18.1499457 C219.517056,17.9816048 211.736051,17.7681726 208.233949,22.5949473 C206.614365,24.8254643 204.586884,26.6702001 201.83459,28.1922825 C199.158277,29.6722796 197.333744,30.4959477 192.969864,31.4148084 L190.870402,29.0981169 C194.949356,28.2403799 198.073555,27.1611944 200.526926,25.8044469 C202.904316,24.4887825 204.650868,22.9035723 206.037512,20.9927026 C210.378399,15.0095861 218.957199,15.245063 225.750457,15.4294364 C226.672221,15.4544871 227.558994,15.4785358 228.472759,15.4825439 C230.900137,11.9794498 235.230026,9.59462026 240.632641,6.61959552 L240.63464,6.61859349 Z M239.184012,1.09140034 C240.59765,1.63550221 241.965299,2.41407891 243.303956,3.51731307 C247.130975,1.72167672 250.989985,1.24370878 254.530077,1.87398516 C258.704007,2.61849287 262.405058,4.89911136 265.070374,8.37915882 C269.357275,13.9724859 272.476475,21.8133645 274.769887,29.7334034 C277.025308,37.5201725 278.491932,45.4251809 279.479679,51.2750275 C280.586395,57.8383189 281.513158,64.7112372 282.230973,71.59618 C282.959787,78.5833297 283.480653,85.5965322 283.76558,92.3201482 C284.186472,102.204164 284.067503,111.44087 283.188728,119.015209 C282.377936,125.994342 280.904314,131.675848 278.596905,135.33626 C277.996059,136.28919 277.339228,137.091816 276.62741,137.727102 C275.509697,138.726125 274.272014,139.304296 272.916362,139.407505 C271.585703,139.507708 270.221053,139.144973 268.835409,138.268198 C267.921643,137.690027 266.985883,136.871369 266.032128,135.799198 C262.191112,131.47945 258.552046,127.51943 254.981961,123.977257 C251.839767,120.860946 248.74856,118.067289 245.616363,115.640374 C242.733102,117.711569 238.759121,121.249734 234.730155,125.336009 C230.53623,129.588621 226.322311,134.401367 223.264095,138.731135 C220.784731,142.240242 218.09642,145.8736 215.117184,149.143221 C212.063967,152.495009 208.692832,155.481056 204.906802,157.608364 C204.585885,157.787727 204.269966,157.949054 203.963044,158.087334 C201.843588,159.045274 199.765121,159.220629 197.964583,158.746669 C196.060071,158.245654 194.489474,157.037207 193.499728,155.267623 C193.399753,155.08826 193.29578,154.882844 193.192806,154.65338 C191.583219,151.086156 190.491499,147.189264 190.303547,143.295378 C190.134591,139.797294 190.694447,136.309231 192.254047,133.067666 C194.936359,127.496384 195.9471,120.530277 195.769146,113.481001 C195.562199,105.305445 193.756662,97.0617504 191.096344,90.733936 C186.94041,80.8449096 182.147639,72.6783715 177.612802,64.9507222 C174.221671,59.1730218 170.970505,53.6348063 168.231207,47.8380673 C166.634617,44.4632329 165.797831,40.4951972 166.041769,36.7365856 C166.268711,33.2455158 167.424414,29.9037484 169.753817,27.3064887 C173.186937,23.477735 177.075939,20.4305642 182.348587,18.4104733 C187.397293,16.4755549 193.674683,15.5065926 201.995549,15.725035 C203.380194,14.7831275 204.459917,14.0366158 205.564634,13.2720675 C214.916236,6.80096281 225.355559,-0.421663773 233.716415,0.0192290816 C235.612928,0.119432003 237.417465,0.412024534 239.184012,1.09140034 L239.184012,1.09140034 Z" id="Fill-10"></path>
                <path d="M308.528817,84.971283 C309.181315,84.4319492 309.857869,84.032702 310.557476,83.7375193 C311.53472,83.3262647 312.51898,83.1301433 313.535314,83.0400876 C318.417527,82.6088206 322.859728,85.7227482 327.858207,89.2269173 L328.189969,89.4580603 C333.005027,89.2639402 336.747622,90.079445 339.705414,91.41227 C342.819566,92.8171396 345.049688,94.790361 346.747587,96.7665843 C348.030533,98.2615097 348.773239,100.738043 348.954655,103.343656 C349.134067,105.915247 348.78226,108.703974 347.878183,110.821284 C346.568175,113.891184 345.313293,116.254647 344.036361,118.661137 C342.339464,121.859117 340.595458,125.142149 338.688078,130.164258 C337.559486,133.135096 337.06034,136.592236 337.209683,140.129426 C337.356019,143.60858 338.13581,147.159778 339.56409,150.399783 C340.363927,152.209904 340.618511,154.349228 340.444111,156.514568 C340.262694,158.775968 339.609193,161.085398 338.624933,163.073628 L338.592859,163.130664 C338.060637,164.164304 336.856873,165.37005 335.49274,166.131521 C333.974253,166.978045 332.177126,167.351276 330.610528,166.578798 L330.559411,166.54878 C328.601915,165.54816 326.616355,164.178312 324.779136,162.617346 C322.908841,161.029363 321.177866,159.226247 319.783664,157.403118 C318.1449,155.259792 316.339755,153.105458 314.564678,151.125232 C313.150431,149.547256 311.778279,148.108365 310.543444,146.898616 C309.538135,147.958272 308.773379,148.837816 307.966526,149.766391 C306.784812,151.124232 305.513893,152.585136 303.428103,154.722459 C303.271744,154.881558 303.108369,155.026647 302.940984,155.158729 C301.543776,156.256409 299.719586,156.504562 298.001641,156.213382 C296.383926,155.937211 294.804298,155.15973 293.790971,154.17412 C293.621582,154.009017 293.464221,153.83491 293.323899,153.656799 C291.824455,151.755623 290.723928,148.815803 290.0153,145.147532 C289.306673,141.480262 288.970902,137.020502 289.001973,132.110462 L289.001973,132.054428 C289.045072,125.274231 289.092181,118.109796 289.988238,111.336603 L290.192708,109.74862 C291.001565,103.379678 292.297542,93.1733601 296.770815,88.1162297 C298.308346,86.3761526 300.305933,85.1964224 302.581158,84.7071195 C304.427398,84.3098736 306.444029,84.3749139 308.528817,84.971283 Z M331.876435,100.900143 C329.646314,100.844108 327.852193,100.040611 326.398856,98.9759519 C324.989619,97.9443133 323.91014,96.6695242 323.061191,95.6078671 C321.722116,93.9338308 318.742272,93.9818606 316.199433,94.0238866 C315.526888,94.0348934 314.880403,94.0448996 314.30408,94.0268884 L313.848033,94.0118792 L313.606478,93.6266407 C313.077263,92.7811173 312.240341,91.6844385 311.357313,90.8949498 C310.517384,90.1444852 309.351707,89.2649408 308.079786,88.7166014 C306.39191,88.1012204 305.066867,87.6459386 303.290788,88.0281752 C301.747243,88.3603809 300.38311,89.1718832 299.323677,90.3706252 C295.542995,94.6462718 294.328205,104.206189 293.571467,110.171882 L293.365995,111.772873 C292.489984,118.39197 292.44488,125.416319 292.402783,132.064434 L292.401781,132.120468 C292.372714,136.812373 292.688439,141.049996 293.356975,144.506135 C293.96437,147.652082 294.846395,150.094594 296.000044,151.5575 L296.170436,151.742615 C296.709674,152.26794 297.608739,152.692202 298.565937,152.853302 C299.431926,152.998392 300.284885,152.921344 300.837153,152.487075 L300.99251,152.346989 C303.060258,150.228677 304.272041,148.834815 305.400633,147.539013 C306.551276,146.215193 307.621734,144.984431 309.285555,143.311396 L310.447223,142.143673 L311.652992,143.258363 C313.269704,144.751287 315.167062,146.691488 317.105513,148.853826 C318.88059,150.834052 320.734848,153.053426 322.48587,155.342843 C323.728724,156.966848 325.286301,158.585851 326.983198,160.028744 C328.62597,161.424608 330.391024,162.643362 332.112978,163.526909 C332.525927,163.731035 333.194462,163.523907 333.839944,163.162684 C334.636774,162.718409 335.302303,162.09102 335.561899,161.593712 L335.577936,161.555689 C336.378775,159.932684 336.909995,158.065528 337.055328,156.250405 C337.185628,154.6274 337.009223,153.055427 336.442922,151.770632 C334.846255,148.151392 333.974253,144.171928 333.809875,140.26551 C333.642491,136.282044 334.213803,132.362618 335.503765,128.967517 C337.502355,123.70626 339.286452,120.347181 341.021437,117.075155 C342.276319,114.713694 343.507145,112.395258 344.746992,109.49046 C345.437578,107.870458 345.702186,105.659089 345.556852,103.571797 C345.421542,101.633597 344.951462,99.8865156 344.16666,98.9729501 C342.752412,97.3259306 340.894144,95.6819129 338.305199,94.5141901 C335.677164,93.3294567 332.275351,92.6260213 327.785039,92.8801786 L327.196688,92.9131991 L325.909732,92.0126416 C321.450492,88.8877073 317.48739,86.1089873 313.830994,86.4321873 C313.125373,86.4942257 312.471872,86.6193031 311.87851,86.8684574 C311.439501,87.053572 311.008512,87.3177355 310.582533,87.6879646 C311.412439,88.1632589 312.132092,88.6935871 312.757528,89.2529334 C313.634542,90.0364183 314.333147,90.8829423 314.899447,91.7264645 C315.336451,91.730467 315.79751,91.7234626 316.271598,91.7164583 C319.19832,91.6674279 322.631203,91.6123939 324.492478,93.9398346 C325.267257,94.9094347 326.249513,96.0711538 327.506399,96.9907231 C328.716178,97.8772718 329.517017,98.3045363 331.365261,98.5476868 L331.876435,100.900143 L331.876435,100.900143 Z" id="Fill-11"></path>
                <path d="M257.327197,57.3566546 C256.22851,57.8351472 255.04859,58.0629057 253.832114,57.9849883 L253.812821,57.9839893 C252.597361,57.9020762 251.461103,57.5254755 250.439589,56.911127 L250.373586,56.8721683 L250.315707,56.8352075 L250.27306,56.809235 C248.724541,55.8382646 247.390276,54.3158789 246.355561,52.3969137 C244.652698,49.239262 243.75405,44.9827755 244.058676,40.3756608 L244.063754,40.2927487 C244.384627,35.6646562 245.863082,31.537033 247.991406,28.6081388 C250.187764,25.586343 253.089841,23.8172189 256.170631,24.0150092 L256.189924,24.0160081 C259.264622,24.2217899 261.887457,26.3395443 263.645153,29.6010859 C265.347,32.7587376 266.246664,37.0142252 265.941022,41.6203409 L265.935945,41.7022541 C265.617103,46.3323445 264.138648,50.4599676 262.009308,53.3888619 C260.692306,55.2009404 259.121448,56.5624967 257.409446,57.3206927 L257.398276,57.3256874 L257.327197,57.3566546 Z M256.799177,55.2438949 C257.786168,54.8083567 258.649276,54.1340717 259.359056,53.3568958 C261.097459,51.4549126 262.005246,48.8866359 262.188022,46.3992735 L262.190053,46.3633116 C262.371814,43.8839407 261.821455,41.2457382 260.372448,39.1499605 C259.260561,37.5436638 257.586129,36.2730111 255.521776,36.1391531 L255.498422,36.1381541 C253.419853,36.0282706 251.54843,37.0701658 250.217211,38.5276204 C248.479824,40.4306025 247.574068,43.001876 247.389261,45.4892385 L247.386215,45.5341908 C247.201408,48.0115639 247.754813,50.6447717 249.202805,52.7375525 C249.811043,53.6166204 250.592918,54.415773 251.544368,54.9641915 L251.575846,54.9821724 C252.340459,55.4157127 253.173105,55.6894224 254.071754,55.7483599 L254.076831,55.7483599 C255.01305,55.8062985 255.922868,55.6194966 256.774807,55.2548832 L256.799177,55.2438949 Z M246.44898,39.2398651 C246.884596,38.4696818 247.395353,37.741454 247.982267,37.0761595 C249.883138,34.9224432 252.552682,33.5089421 255.48116,33.6977419 L255.527869,33.6997398 C258.473608,33.8995279 260.901483,35.6246986 262.49468,38.0101691 C262.98716,38.7473874 263.394344,39.5355516 263.720294,40.3576798 C263.793405,37.0601764 263.19329,33.5399092 261.633602,30.6459779 C260.49836,28.5412097 258.609675,26.4374405 256.036595,26.2506386 L256.020349,26.2486407 C253.435084,26.0608398 251.245834,27.9748103 249.84049,29.9087596 C247.909157,32.5639441 246.838902,35.9693331 246.44898,39.2398651 L246.44898,39.2398651 Z" id="Fill-12"></path>
                <path d="M235.13951,54.0106948 C235.981436,53.8865665 236.875644,54.8574273 236.986519,56.169641 C237.098295,57.4818547 236.498851,58.8550242 235.786729,58.9880188 C235.074608,59.1210135 234.189413,58.1302035 234.032566,56.8412639 C233.874818,55.5523242 234.297584,54.1348232 235.13951,54.0106948" id="Fill-13"></path>
                <path d="M254.84492,44.0093497 C257.321227,44.1848599 259.176427,46.787748 258.986645,49.8196609 C258.797877,52.8515738 256.634153,55.1670767 254.157846,54.9905401 C251.681539,54.8140036 249.825323,52.2121419 250.013076,49.1822818 C250.204888,46.1503688 252.366583,43.8338396 254.84492,44.0093497 Z M254.694717,48.455608 C255.573603,48.5171905 256.229216,49.489168 256.157159,50.6233128 C256.087133,51.758484 255.315824,52.627824 254.436938,52.5652151 C253.558052,52.5026062 252.902439,51.5316551 252.973481,50.3964839 C253.044523,49.262339 253.813802,48.3929991 254.694717,48.455608 L254.694717,48.455608 Z" id="Fill-14"></path>
                <path d="M303.483843,114.703343 C304.035636,114.932939 304.627061,115.037209 305.232712,114.988082 L305.242874,114.987079 C305.848526,114.935947 306.412513,114.737432 306.915529,114.421612 L306.949064,114.40156 L306.977517,114.382511 L306.997841,114.369477 C307.762019,113.869179 308.414415,113.096174 308.913366,112.127662 C309.734451,110.532524 310.146009,108.395981 309.952932,106.093007 L309.949884,106.051901 C309.748677,103.738901 308.974338,101.686577 307.88701,100.239824 C306.764116,98.7469511 305.300797,97.8867196 303.765328,98.0120447 L303.756183,98.0120447 C302.223762,98.1413802 300.934213,99.2241891 300.085691,100.871462 C299.264606,102.465598 298.854064,104.60214 299.047141,106.904111 L299.050189,106.945218 C299.250379,109.258218 300.024719,111.311545 301.113063,112.758298 C301.785783,113.65362 302.581463,114.321352 303.442179,114.686299 L303.448276,114.688304 L303.483843,114.703343 Z M306.429789,102.08862 C306.32004,101.907149 306.202161,101.732696 306.076153,101.565262 C305.610736,100.946657 304.805911,100.160618 303.967551,100.228795 L303.945195,100.2308 C303.098705,100.301985 302.447325,101.199313 302.098771,101.877071 C301.999184,102.06957 301.909759,102.268085 301.830496,102.471613 C302.501183,102.075586 303.256215,101.819923 304.075268,101.749741 L304.093559,101.748738 C304.911595,101.681564 305.700161,101.808894 306.429789,102.08862 Z M304.769328,108.235565 C303.818171,108.406007 303.213535,109.574037 303.41779,110.845335 C303.579365,111.841921 304.191114,112.605902 304.906514,112.806423 C303.50315,112.839508 302.20852,111.157144 301.945325,108.872217 C301.666888,106.441912 302.65971,104.250227 304.164693,103.97752 C305.669676,103.705815 307.115719,105.456356 307.396189,107.885658 C307.549634,109.229143 307.314893,110.500441 306.818991,111.41381 C306.909432,111.050868 306.929756,110.644815 306.862687,110.228736 C306.657416,108.958441 305.720485,108.066126 304.769328,108.235565 L304.769328,108.235565 Z" id="Fill-15"></path>
                <path d="M300.336382,120.182505 C300.284652,120.473341 300.262337,120.771346 300.26538,121.074471 C300.271465,121.706323 299.768361,122.223479 299.142522,122.229623 C298.517698,122.234744 298.006479,121.727828 298.000393,121.097 C297.986192,119.670469 298.356421,118.359657 299.202367,117.210649 C299.804876,116.391392 300.52809,115.807671 301.338535,115.216782 C301.844683,114.847092 302.553696,114.961788 302.919867,115.4728 C303.287052,115.984836 303.173448,116.700662 302.666286,117.071376 C302.248384,117.375525 301.838597,117.684794 301.476483,118.04834 C303.323568,120.197866 305.639271,121.709395 308.519953,122.020713 C311.809407,122.376066 315.121177,121.104169 317.912598,119.413427 C317.896369,118.822538 317.910569,118.228576 317.920713,117.640759 L317.923756,117.47998 C317.934913,116.8512 318.448161,116.347357 319.071971,116.35555 C319.698823,116.363742 320.1999,116.886019 320.189757,117.517871 L320.186714,117.67865 C320.170484,118.65459 320.058909,120.521472 320.604615,121.366331 C320.795308,121.661264 321.062076,121.861982 321.371445,122.017641 C321.931352,122.29926 322.159575,122.987436 321.88165,123.552724 C321.602711,124.118011 320.921085,124.349451 320.361177,124.066808 C319.815471,123.792356 319.346853,123.448268 318.972567,123.008942 C317.599172,124.178431 316.292722,125.555807 315.107991,126.873787 C314.060193,128.041229 313.047897,129.246561 312.07516,130.477495 C311.306302,131.450363 310.545559,132.452928 309.852775,133.48212 L309.538335,133.950121 L308.978427,133.981867 C306.076445,134.149815 303.731327,133.164658 302.425891,130.460085 C301.162042,127.842559 301.176243,124.103674 301.370993,121.178926 C301.010908,120.863512 300.666038,120.530689 300.336382,120.182505 Z M304.269933,127.893762 C305.009375,127.307994 305.785334,126.785717 306.551149,126.314644 C307.373766,125.807729 308.17914,125.364306 308.915539,124.963894 C309.31214,124.757032 309.637738,124.915763 309.409515,125.438039 C309.340541,125.597794 309.264467,125.687913 309.140719,125.885558 C309.633681,125.676648 311.435121,125.008953 311.836794,125.529182 C311.983871,125.720683 312.020387,126.038145 311.883453,126.559397 C310.81334,128.037132 310.155044,128.755007 309.155934,130.299306 C307.484327,130.700742 305.309616,130.80827 304.269933,127.893762 L304.269933,127.893762 Z" id="Fill-48"></path>
                <path d="M408.105244,85.2919098 C435.818479,69.1554969 430.019131,39.2716204 399.833221,41.0783385 C381.143646,42.1977833 364.128948,52.5979166 359.025041,68.6823088 C354.338598,83.4481771 361.084266,93.1610372 369.144546,100.847092 C377.141605,108.473122 393.476919,119.622554 392.649014,132.617718 C391.91243,144.192318 383.256058,143.936216 379.894263,141.197128 C374.311676,136.647319 373.014123,128.195961 371.17768,121.530312 C370.179176,117.905871 365.005022,115.573945 360.82034,117.669777 C356.212171,119.977695 351.429391,122.699776 348.121785,126.610331 C345.762508,129.399439 347.513652,134.955647 349.795658,137.811782 C364.910691,156.734302 387.869244,161.118045 402.081108,149.900587 C419.185119,136.402222 423.239344,119.950684 416.213693,105.764046 C413.399821,100.082788 408.593959,94.8897242 402.463449,90.1988599 C388.556656,79.5586313 385.063399,66.4464202 394.811602,54.3946306 C395.835193,53.1281273 397.747904,52.5919142 398.888907,53.7583778 C406.481547,61.5154606 407.296406,70.7021115 405.30241,83.7863115 C405.098695,85.1218422 406.936142,85.9731806 408.105244,85.2919098" id="Fill-49"></path>
                <path d="M440.419515,99.2017991 C442.209678,94.4219974 444.28005,88.850585 446.482109,85.1145441 C449.544596,79.9148271 452.73481,75.0988604 462.131188,75 C466.455106,74.9552052 466.072914,78.6470444 465.206546,80.5577596 C462.870819,85.7022246 459.172665,91.7196715 457.386463,99.2821656 C465.641215,98.9365894 467.916545,99.6990672 464.411468,107.368047 C461.913358,112.832974 456.522075,112.888226 452.430838,113.501021 C450.416904,120.881686 449.050519,127.812298 448.343562,135.633974 C447.696014,142.804681 452.595201,144.997684 459.929128,144.668181 C456.577522,148.755826 452.403115,151.778613 447.701955,154.11728 C439.06402,157.037601 431.585533,152.227661 428.850781,146.771776 C425.959588,141.002461 431.063732,126.141678 434.79555,113.747143 C429.707247,113.621571 428.598297,110.071378 431.33998,105.217237 C432.806369,102.621397 435.279725,100.842282 440.419515,99.2017991" id="Fill-50"></path>
                <path d="M514.784624,95.0776857 C500.26094,94.1593167 487.003059,101.4605 477.176064,112.888871 C468.78211,122.650646 461.769122,142.929388 476.82957,151.15491 C486.998052,156.708903 500.88583,155.820383 511.519974,151.205654 C528.719469,143.743284 536.77394,122.662586 529.07097,109.723831 C524.220061,101.575918 516.005362,100.28642 505.213994,108.749743 C504.253626,109.502945 502.862645,110.191473 506.424718,112.559531 C514.355012,117.831945 515.501645,126.905192 514.645426,132.424361 C513.509808,139.742458 507.780649,147.752069 498.215026,145.891451 C490.180584,144.328333 486.326095,133.115874 489.753977,122.223798 C491.979146,115.151461 497.95065,100.58392 515.712946,98.4258024 C520.608918,97.8308028 519.214933,95.3572758 514.784624,95.0776857" id="Fill-51"></path>
                <path d="M553.328896,100.53613 C557.752257,95.6110851 566.890881,97.30363 566.809189,102.066046 C566.682665,109.395388 562.323064,116.712683 560.62545,123.427649 C560.248866,124.913394 561.450347,125.775729 562.921812,124.16751 C571.394939,114.913726 577.800842,104.222384 588.162864,97.1861758 C592.734667,94.0821729 601.804549,96.9081005 599.262113,107.584385 C597.399121,115.401613 595.510226,118.085993 593.225819,123.622402 C592.712749,124.865208 593.98596,125.932334 594.974242,125.052934 C599.968456,120.609752 607.63163,112.683101 613.463692,106.272311 C617.080088,102.297943 628.711336,102.239717 626.786576,112.801559 C623.620486,130.168716 620.503212,139.876254 623.128337,155.444455 C623.684246,158.744215 622.535567,160.677691 620.315917,162.065056 C612.252249,167.105547 605.78657,161.315156 602.994075,155.914272 C599.877797,149.885961 603.040899,141.873979 602.971161,129.952881 C595.383702,137.426782 587.624888,144.500134 580.208784,152.372576 C575.561267,157.305652 566.258261,153.415609 566.556141,147.802906 C566.887893,141.52262 569.73319,134.43923 571.493568,128.403892 C563.669001,134.742402 557.010049,144.676817 549.322965,151.836503 C541.876974,158.771319 532.827017,153.215837 535.469078,142.672065 C538.677011,129.868555 545.903827,108.803097 553.328896,100.53613" id="Fill-52"></path>
            </g>
        </g>
    </g>
</svg>