<svg width="44" height="28" xmlns="http://www.w3.org/2000/svg"><path d="M43.763 25.202c-1.797-3.234-6.426-7.12-8.337-8.811a1.242 1.242 0 0 1-.103-1.776c3.647-3.919 6.564-8.422 7.568-11.143C43.334 2.27 42.417 1 41.125 1h-3.753c-1.237 0-1.961.444-2.306 1.151-3.031 6.211-5.631 8.899-7.451 10.47-1.019.88-2.608.151-2.608-1.188v-8.28a2.084 2.084 0 0 0-2.095-2.075L16.056 1c-.863 0-1.356.977-.838 1.662l1.132 1.625c.426.563.656 1.248.656 1.951L17 13.556c0 1.273-1.543 1.895-2.459 1.003-3.099-3.018-5.788-9.181-6.756-12.128A2.087 2.087 0 0 0 5.8 1L2.103.991C.716.991-.298 2.306.079 3.63 3.457 15.487 10.388 26.767 22.74 27.99c1.217.12 2.267-.86 2.267-2.073v-3.846c0-1.103.865-2.051 1.977-2.079l.117-.001c3.267 0 6.926 4.755 8.206 6.979a2.07 2.07 0 0 0 1.8 1.03h4.973c1.451 0 2.382-1.539 1.683-2.798Z" fill="#7BA7AF"/></svg>